0
SECTION
2
TABLES
0
TABLE
2
VPORT
70
1
0
VPORT
2
*ACTIVE
70
0
 10
0.0
 20
0.0
 11
1.0
 21
1.0
 12
1500
 22
0
 13
0.0
 23
0.0
 14
10.0
 24
10.0
 15
10.0
 25
10.0
 16
0.0
 26
0.0
 36
1.0
 17
0.0
 27
0.0
 37
0.0
 40
1500
 41
0
 42
50.0
 43
0.0
 44
0.0
 50
0.0
 51
0.0
 71
     0
 72
  1000
 73
     1
 74
     3
 75
     0
 76
     0
 77
     0
 78
     0
  0
ENDTAB
  0
ENDSEC
  0
SECTION
  2
ENTITIES
  0
POINT
  8
0
 10
-0.75
 20
0
 30
0.0
  0
POINT
  8
0
 10
0.75
 20
0
 30
0.0
  0
POINT
  8
0
 10
-0.75
 20
20
 30
0.0
  0
POINT
  8
0
 10
0.75
 20
20
 30
0.0
  0
POINT
  8
0
 10
0
 20
19.1995
 30
0.0
  0
POINT
  8
0
 10
-1.12379
 20
18
 30
0.0
  0
POINT
  8
0
 10
1.12379
 20
18
 30
0.0
  0
POINT
  8
0
 10
0
 20
17.1138
 30
0.0
  0
POINT
  8
0
 10
-1.41252
 20
16
 30
0.0
  0
POINT
  8
0
 10
1.41252
 20
16
 30
0.0
  0
POINT
  8
0
 10
0
 20
15.0677
 30
0.0
  0
POINT
  8
0
 10
-1.61772
 20
14
 30
0.0
  0
POINT
  8
0
 10
1.61772
 20
14
 30
0.0
  0
POINT
  8
0
 10
0
 20
13.0365
 30
0.0
  0
POINT
  8
0
 10
-1.74043
 20
12
 30
0.0
  0
POINT
  8
0
 10
1.74043
 20
12
 30
0.0
  0
POINT
  8
0
 10
0
 20
11.0116
 30
0.0
  0
POINT
  8
0
 10
-1.78126
 20
10
 30
0.0
  0
POINT
  8
0
 10
1.78126
 20
10
 30
0.0
  0
POINT
  8
0
 10
0
 20
8.98841
 30
0.0
  0
POINT
  8
0
 10
-1.74043
 20
8
 30
0.0
  0
POINT
  8
0
 10
1.74043
 20
8
 30
0.0
  0
POINT
  8
0
 10
0
 20
6.96346
 30
0.0
  0
POINT
  8
0
 10
-1.61772
 20
6
 30
0.0
  0
POINT
  8
0
 10
1.61772
 20
6
 30
0.0
  0
POINT
  8
0
 10
0
 20
4.93228
 30
0.0
  0
POINT
  8
0
 10
-1.41252
 20
4
 30
0.0
  0
POINT
  8
0
 10
1.41252
 20
4
 30
0.0
  0
POINT
  8
0
 10
0
 20
2.88616
 30
0.0
  0
POINT
  8
0
 10
-1.12379
 20
2
 30
0.0
  0
POINT
  8
0
 10
1.12379
 20
2
 30
0.0
  0
POINT
  8
0
 10
0
 20
0.800517
 30
0.0
  0
LINE
  8
0
 10
 0
 20
19.1995
30
0.0
 11
-0.75
 21
20
 31
0.0
  0
LINE
  8
0
 10
 0
 20
19.1995
30
0.0
 11
0.75
 21
20
 31
0.0
  0
LINE
  8
0
 10
 0
 20
19.1995
30
0.0
 11
-1.12379
 21
18
 31
0.0
  0
LINE
  8
0
 10
 0
 20
19.1995
30
0.0
 11
1.12379
 21
18
 31
0.0
  0
LINE
  8
0
 10
 -0.75
 20
20
30
0.0
 11
-1.12379
 21
18
 31
0.0
  0
LINE
  8
0
 10
 0.75
 20
20
30
0.0
 11
1.12379
 21
18
 31
0.0
  0
LINE
  8
0
 10
 0
 20
17.1138
30
0.0
 11
-1.12379
 21
18
 31
0.0
  0
LINE
  8
0
 10
 0
 20
17.1138
30
0.0
 11
1.12379
 21
18
 31
0.0
  0
LINE
  8
0
 10
 0
 20
17.1138
30
0.0
 11
-1.41252
 21
16
 31
0.0
  0
LINE
  8
0
 10
 0
 20
17.1138
30
0.0
 11
1.41252
 21
16
 31
0.0
  0
LINE
  8
0
 10
 -1.12379
 20
18
30
0.0
 11
-1.41252
 21
16
 31
0.0
  0
LINE
  8
0
 10
 1.12379
 20
18
30
0.0
 11
1.41252
 21
16
 31
0.0
  0
LINE
  8
0
 10
 0
 20
15.0677
30
0.0
 11
-1.41252
 21
16
 31
0.0
  0
LINE
  8
0
 10
 0
 20
15.0677
30
0.0
 11
1.41252
 21
16
 31
0.0
  0
LINE
  8
0
 10
 0
 20
15.0677
30
0.0
 11
-1.61772
 21
14
 31
0.0
  0
LINE
  8
0
 10
 0
 20
15.0677
30
0.0
 11
1.61772
 21
14
 31
0.0
  0
LINE
  8
0
 10
 -1.41252
 20
16
30
0.0
 11
-1.61772
 21
14
 31
0.0
  0
LINE
  8
0
 10
 1.41252
 20
16
30
0.0
 11
1.61772
 21
14
 31
0.0
  0
LINE
  8
0
 10
 0
 20
13.0365
30
0.0
 11
-1.61772
 21
14
 31
0.0
  0
LINE
  8
0
 10
 0
 20
13.0365
30
0.0
 11
1.61772
 21
14
 31
0.0
  0
LINE
  8
0
 10
 0
 20
13.0365
30
0.0
 11
-1.74043
 21
12
 31
0.0
  0
LINE
  8
0
 10
 0
 20
13.0365
30
0.0
 11
1.74043
 21
12
 31
0.0
  0
LINE
  8
0
 10
 -1.61772
 20
14
30
0.0
 11
-1.74043
 21
12
 31
0.0
  0
LINE
  8
0
 10
 1.61772
 20
14
30
0.0
 11
1.74043
 21
12
 31
0.0
  0
LINE
  8
0
 10
 0
 20
11.0116
30
0.0
 11
-1.74043
 21
12
 31
0.0
  0
LINE
  8
0
 10
 0
 20
11.0116
30
0.0
 11
1.74043
 21
12
 31
0.0
  0
LINE
  8
0
 10
 0
 20
11.0116
30
0.0
 11
-1.78126
 21
10
 31
0.0
  0
LINE
  8
0
 10
 0
 20
11.0116
30
0.0
 11
1.78126
 21
10
 31
0.0
  0
LINE
  8
0
 10
 -1.74043
 20
12
30
0.0
 11
-1.78126
 21
10
 31
0.0
  0
LINE
  8
0
 10
 1.74043
 20
12
30
0.0
 11
1.78126
 21
10
 31
0.0
  0
LINE
  8
0
 10
 0
 20
8.98841
30
0.0
 11
-1.78126
 21
10
 31
0.0
  0
LINE
  8
0
 10
 0
 20
8.98841
30
0.0
 11
1.78126
 21
10
 31
0.0
  0
LINE
  8
0
 10
 0
 20
8.98841
30
0.0
 11
-1.74043
 21
8
 31
0.0
  0
LINE
  8
0
 10
 0
 20
8.98841
30
0.0
 11
1.74043
 21
8
 31
0.0
  0
LINE
  8
0
 10
 -1.78126
 20
10
30
0.0
 11
-1.74043
 21
8
 31
0.0
  0
LINE
  8
0
 10
 1.78126
 20
10
30
0.0
 11
1.74043
 21
8
 31
0.0
  0
LINE
  8
0
 10
 0
 20
6.96346
30
0.0
 11
-1.74043
 21
8
 31
0.0
  0
LINE
  8
0
 10
 0
 20
6.96346
30
0.0
 11
1.74043
 21
8
 31
0.0
  0
LINE
  8
0
 10
 0
 20
6.96346
30
0.0
 11
-1.61772
 21
6
 31
0.0
  0
LINE
  8
0
 10
 0
 20
6.96346
30
0.0
 11
1.61772
 21
6
 31
0.0
  0
LINE
  8
0
 10
 -1.74043
 20
8
30
0.0
 11
-1.61772
 21
6
 31
0.0
  0
LINE
  8
0
 10
 1.74043
 20
8
30
0.0
 11
1.61772
 21
6
 31
0.0
  0
LINE
  8
0
 10
 0
 20
4.93228
30
0.0
 11
-1.61772
 21
6
 31
0.0
  0
LINE
  8
0
 10
 0
 20
4.93228
30
0.0
 11
1.61772
 21
6
 31
0.0
  0
LINE
  8
0
 10
 0
 20
4.93228
30
0.0
 11
-1.41252
 21
4
 31
0.0
  0
LINE
  8
0
 10
 0
 20
4.93228
30
0.0
 11
1.41252
 21
4
 31
0.0
  0
LINE
  8
0
 10
 -1.61772
 20
6
30
0.0
 11
-1.41252
 21
4
 31
0.0
  0
LINE
  8
0
 10
 1.61772
 20
6
30
0.0
 11
1.41252
 21
4
 31
0.0
  0
LINE
  8
0
 10
 0
 20
2.88616
30
0.0
 11
-1.41252
 21
4
 31
0.0
  0
LINE
  8
0
 10
 0
 20
2.88616
30
0.0
 11
1.41252
 21
4
 31
0.0
  0
LINE
  8
0
 10
 0
 20
2.88616
30
0.0
 11
-1.12379
 21
2
 31
0.0
  0
LINE
  8
0
 10
 0
 20
2.88616
30
0.0
 11
1.12379
 21
2
 31
0.0
  0
LINE
  8
0
 10
 -1.41252
 20
4
30
0.0
 11
-1.12379
 21
2
 31
0.0
  0
LINE
  8
0
 10
 1.41252
 20
4
30
0.0
 11
1.12379
 21
2
 31
0.0
  0
LINE
  8
0
 10
 0
 20
0.800517
30
0.0
 11
-1.12379
 21
2
 31
0.0
  0
LINE
  8
0
 10
 0
 20
0.800517
30
0.0
 11
1.12379
 21
2
 31
0.0
  0
LINE
  8
0
 10
 0
 20
0.800517
30
0.0
 11
-0.75
 21
0
 31
0.0
  0
LINE
  8
0
 10
 0
 20
0.800517
30
0.0
 11
0.75
 21
0
 31
0.0
  0
LINE
  8
0
 10
 -1.12379
 20
2
30
0.0
 11
-0.75
 21
0
 31
0.0
  0
LINE
  8
0
 10
 1.12379
 20
2
30
0.0
 11
0.75
 21
0
 31
0.0
  0
ENDSEC
  0
EOF